<?xml version="1.0" standalone="no"?>
<!DOCTYPE svg PUBLIC "-//W3C//DTD SVG 20010904//EN"
 "http://www.w3.org/TR/2001/REC-SVG-20010904/DTD/svg10.dtd">
<svg version="1.0" xmlns="http://www.w3.org/2000/svg"
 width="1280.000000pt" height="694.000000pt" viewBox="0 0 1280.000000 694.000000"
 preserveAspectRatio="xMidYMid meet">
<metadata>
Created by potrace 1.15, written by Peter Selinger 2001-2017
</metadata>
<g transform="translate(0.000000,694.000000) scale(0.100000,-0.100000)"
fill="#000000" stroke="none">
<path d="M2270 6921 c-63 -20 -115 -47 -180 -90 -35 -24 -56 -31 -95 -31 -68
0 -295 -26 -440 -51 -181 -31 -224 -42 -619 -164 -62 -19 -124 -35 -137 -35
-12 0 -106 41 -208 91 -232 114 -277 130 -367 130 -101 1 -156 -29 -197 -106
-18 -34 -22 -57 -21 -145 0 -126 14 -167 97 -291 38 -56 60 -100 66 -133 14
-75 26 -87 189 -202 82 -58 97 -93 86 -198 -40 -363 39 -606 267 -820 39 -37
81 -72 93 -78 13 -5 28 -25 34 -43 10 -33 9 -34 -22 -38 l-31 -4 32 -1 c28 -2
34 -7 41 -34 7 -26 5 -36 -7 -45 -14 -11 -14 -12 4 -13 11 0 26 -9 33 -20 11
-18 10 -22 -10 -30 -23 -9 -23 -9 3 -9 18 -1 34 -11 50 -36 21 -30 84 -70 141
-88 9 -3 24 -22 34 -42 22 -47 88 -103 133 -112 20 -5 83 -8 141 -7 163 1 229
38 302 168 18 32 49 72 69 88 31 25 39 27 64 18 15 -6 30 -8 33 -6 3 3 -1 7
-9 10 -51 15 -50 15 -37 36 9 14 19 18 33 14 33 -11 41 -11 17 0 -13 6 -20 16
-17 24 3 7 5 20 5 28 0 23 74 15 78 -8 3 -14 -3 -16 -35 -13 l-38 4 43 -11
c35 -9 42 -15 42 -35 0 -20 -4 -23 -22 -19 -17 4 -16 2 4 -6 21 -9 31 -26 48
-77 12 -36 30 -84 40 -106 9 -22 32 -74 49 -115 68 -165 194 -370 378 -618
183 -247 177 -234 208 -411 41 -239 90 -414 262 -936 108 -328 103 -282 63
-566 -11 -76 -25 -225 -30 -331 -11 -201 -40 -382 -85 -528 -12 -41 -31 -119
-40 -173 -29 -160 -81 -220 -221 -251 -192 -43 -233 -65 -273 -150 -30 -60
-26 -109 12 -186 47 -96 59 -100 309 -107 323 -10 370 -9 398 7 15 8 53 14 95
15 53 0 79 5 107 22 32 19 58 23 195 28 178 8 210 15 259 57 55 48 78 142 70
273 -4 62 -3 105 2 109 6 3 22 43 37 88 34 102 31 159 -16 305 -31 98 -32 102
-16 136 14 28 15 44 7 87 -11 58 -10 57 -57 125 -21 33 -37 71 -43 107 -5 32
-13 65 -18 75 -5 10 -13 88 -17 174 l-7 157 40 113 c53 151 86 231 176 431 41
93 98 232 127 310 61 171 123 306 187 408 26 41 61 111 79 155 l32 80 138 -1
c76 0 329 -2 563 -5 442 -4 481 -2 740 41 229 39 481 117 710 220 l105 47 26
-106 c54 -222 114 -389 284 -796 117 -278 122 -291 200 -510 26 -71 75 -191
110 -265 64 -137 85 -216 85 -316 0 -58 -23 -188 -47 -259 -26 -81 -168 -389
-209 -452 -50 -79 -149 -197 -176 -211 -13 -7 -66 -21 -118 -31 -148 -30 -171
-43 -231 -125 -44 -60 -40 -100 17 -169 57 -70 112 -89 248 -87 50 1 177 2
281 1 289 -1 299 5 340 199 35 165 156 473 263 670 25 47 95 166 154 265 165
274 178 322 130 475 -42 133 -51 182 -62 349 -11 156 1 441 23 561 l12 65 27
-45 c14 -25 101 -153 194 -285 92 -132 206 -298 252 -370 46 -71 115 -175 152
-230 113 -167 161 -286 162 -401 0 -76 -26 -320 -53 -477 -21 -127 -105 -371
-136 -395 -10 -6 -68 -28 -129 -47 -135 -42 -163 -65 -188 -154 -19 -67 -16
-86 22 -144 33 -50 71 -68 162 -79 41 -4 91 -11 111 -14 20 -3 63 1 97 10 56
14 63 14 94 -2 33 -16 42 -17 249 -14 85 1 126 21 166 81 45 66 53 122 64 401
15 422 61 859 114 1085 24 103 16 138 -62 251 -110 162 -132 232 -178 554 -15
102 -35 239 -46 305 -30 191 -21 393 27 614 35 155 76 269 194 536 123 279
161 389 185 539 l6 38 167 -164 c422 -413 714 -630 1077 -795 575 -263 1205
-232 1630 81 333 244 585 680 585 1008 -1 449 -181 715 -551 813 -71 19 -212
19 -276 0 -70 -21 -160 -90 -207 -158 -31 -45 -40 -69 -44 -111 -4 -48 -1 -57
21 -80 17 -17 37 -26 57 -26 26 0 35 7 58 47 38 66 101 134 139 149 68 29 205
10 311 -43 177 -89 284 -354 252 -629 -18 -164 -132 -394 -270 -546 -365 -403
-963 -486 -1545 -214 -202 95 -392 231 -625 448 -179 167 -299 295 -500 533
-223 264 -294 339 -391 410 -67 51 -106 90 -160 161 -185 247 -379 403 -674
545 -274 131 -550 200 -925 230 -210 17 -642 5 -1130 -31 -637 -46 -935 -56
-1229 -41 -135 6 -295 18 -356 25 -60 8 -175 22 -255 32 l-145 18 -130 126
c-139 135 -214 187 -348 239 -145 58 -436 121 -554 121 -28 0 -150 14 -270 30
-120 17 -277 36 -350 44 l-131 13 -34 38 c-63 73 -156 92 -268 56z m-365
-2198 c6 -41 5 -43 -19 -43 -29 0 -37 16 -22 50 9 22 27 42 32 37 1 -1 5 -21
9 -44z"/>
<path d="M530 4700 c-13 -8 -13 -10 2 -10 9 0 20 5 23 10 8 13 -5 13 -25 0z"/>
<path d="M690 4700 c-18 -6 -5 -8 45 -8 48 -1 64 2 50 8 -25 11 -62 11 -95 0z"/>
<path d="M475 4680 c-3 -6 1 -7 9 -4 18 7 21 14 7 14 -6 0 -13 -4 -16 -10z"/>
<path d="M790 4620 c0 -13 11 -13 30 0 12 8 11 10 -7 10 -13 0 -23 -4 -23 -10z"/>
<path d="M688 4607 c-21 -6 -38 -14 -38 -18 0 -7 88 18 99 27 7 6 -22 2 -61
-9z"/>
<path d="M275 4590 c-10 -11 -14 -20 -9 -20 5 0 15 9 22 20 7 11 11 20 9 20
-2 0 -12 -9 -22 -20z"/>
<path d="M745 4590 c-3 -5 -2 -10 4 -10 5 0 13 5 16 10 3 6 2 10 -4 10 -5 0
-13 -4 -16 -10z"/>
<path d="M502 4543 c-35 -19 -61 -37 -59 -39 2 -3 35 14 73 36 38 22 64 40 59
40 -6 -1 -38 -17 -73 -37z"/>
<path d="M700 4570 c0 -5 7 -7 15 -4 8 4 15 8 15 10 0 2 -7 4 -15 4 -8 0 -15
-4 -15 -10z"/>
<path d="M805 4553 c-11 -3 -24 -9 -29 -14 -6 -5 -19 -9 -31 -9 -19 0 -70 -29
-52 -30 11 0 129 40 147 51 13 7 13 8 0 8 -8 -1 -24 -3 -35 -6z"/>
<path d="M864 4535 c-10 -8 -14 -15 -8 -15 5 0 19 7 30 15 10 8 14 15 8 15 -5
0 -19 -7 -30 -15z"/>
<path d="M895 4520 c-3 -5 -2 -10 4 -10 5 0 13 5 16 10 3 6 2 10 -4 10 -5 0
-13 -4 -16 -10z"/>
<path d="M510 4499 c-17 -13 -18 -17 -5 -10 33 17 51 31 40 31 -5 0 -21 -10
-35 -21z"/>
<path d="M805 4508 c-11 -6 -22 -15 -26 -20 -3 -4 -29 -26 -59 -48 -29 -22
-50 -40 -46 -40 8 0 80 53 131 95 32 27 32 31 0 13z"/>
<path d="M1840 4517 c0 -2 15 -16 33 -33 l32 -29 -29 33 c-28 30 -36 37 -36
29z"/>
<path d="M634 4491 c-17 -5 -42 -16 -55 -25 l-24 -18 25 7 c28 8 23 2 -31 -38
-20 -14 -39 -35 -42 -47 -8 -29 5 -25 25 9 9 17 35 42 59 57 38 23 90 66 78
63 -2 -1 -18 -4 -35 -8z m-9 -21 c-3 -5 -11 -10 -16 -10 -6 0 -7 5 -4 10 3 6
11 10 16 10 6 0 7 -4 4 -10z"/>
<path d="M910 4480 c-8 -5 -10 -10 -5 -10 6 0 17 5 25 10 8 5 11 10 5 10 -5 0
-17 -5 -25 -10z"/>
<path d="M426 4374 c-5 -14 -4 -15 9 -4 17 14 19 20 6 20 -5 0 -12 -7 -15 -16z"/>
<path d="M245 4330 c-10 -11 -14 -20 -9 -20 5 0 15 9 22 20 7 11 11 20 9 20
-2 0 -12 -9 -22 -20z"/>
<path d="M491 4307 c-13 -21 -12 -21 5 -5 10 10 16 20 13 22 -3 3 -11 -5 -18
-17z"/>
<path d="M442 4259 c-19 -30 -11 -32 11 -3 10 13 14 24 10 24 -5 0 -14 -9 -21
-21z"/>
</g>
</svg>
